<mxfile host="Electron" agent="Mozilla/5.0 (Windows NT 10.0; Win64; x64) AppleWebKit/537.36 (KHTML, like Gecko) draw.io/28.1.2 Chrome/138.0.7204.243 Electron/37.4.0 Safari/537.36" version="28.1.2">
  <diagram name="ページ1" id="Y4BbN34iLfgW_EqJwxx7">
    <mxGraphModel dx="786" dy="516" grid="1" gridSize="10" guides="1" tooltips="1" connect="1" arrows="1" fold="1" page="1" pageScale="1" pageWidth="1600" pageHeight="1200" math="0" shadow="0">
      <root>
        <mxCell id="0" />
        <mxCell id="1" parent="0" />
        <mxCell id="m-wUcL0TxxVz_5NodCS--1" value="学生" style="shape=umlActor;verticalLabelPosition=bottom;verticalAlign=top;html=1;" vertex="1" parent="1">
          <mxGeometry x="390" y="240" width="30" height="60" as="geometry" />
        </mxCell>
        <mxCell id="m-wUcL0TxxVz_5NodCS--2" value="メニュー画面" style="shape=umlBoundary;whiteSpace=wrap;html=1;fillColor=#d5e8d4;strokeColor=#82b366;" vertex="1" parent="1">
          <mxGeometry x="540" y="170" width="70" height="60" as="geometry" />
        </mxCell>
        <mxCell id="m-wUcL0TxxVz_5NodCS--3" value="学生登録画面" style="shape=umlBoundary;whiteSpace=wrap;html=1;fillColor=#d5e8d4;strokeColor=#82b366;" vertex="1" parent="1">
          <mxGeometry x="540" y="300" width="70" height="60" as="geometry" />
        </mxCell>
        <mxCell id="m-wUcL0TxxVz_5NodCS--5" value="" style="endArrow=classic;html=1;rounded=0;entryX=-0.029;entryY=0.544;entryDx=0;entryDy=0;entryPerimeter=0;" edge="1" parent="1" target="m-wUcL0TxxVz_5NodCS--2">
          <mxGeometry width="50" height="50" relative="1" as="geometry">
            <mxPoint x="430" y="260" as="sourcePoint" />
            <mxPoint x="430" y="250" as="targetPoint" />
          </mxGeometry>
        </mxCell>
        <mxCell id="m-wUcL0TxxVz_5NodCS--14" value="メニュー画面を&lt;br&gt;クリックする" style="edgeLabel;html=1;align=center;verticalAlign=middle;resizable=0;points=[];" vertex="1" connectable="0" parent="m-wUcL0TxxVz_5NodCS--5">
          <mxGeometry x="0.0049" relative="1" as="geometry">
            <mxPoint as="offset" />
          </mxGeometry>
        </mxCell>
        <mxCell id="m-wUcL0TxxVz_5NodCS--6" value="" style="endArrow=classic;html=1;rounded=0;entryX=0;entryY=0.5;entryDx=0;entryDy=0;entryPerimeter=0;" edge="1" parent="1" target="m-wUcL0TxxVz_5NodCS--3">
          <mxGeometry width="50" height="50" relative="1" as="geometry">
            <mxPoint x="430" y="280" as="sourcePoint" />
            <mxPoint x="538" y="220" as="targetPoint" />
          </mxGeometry>
        </mxCell>
        <mxCell id="m-wUcL0TxxVz_5NodCS--15" value="学生情報を&lt;br&gt;入力する" style="edgeLabel;html=1;align=center;verticalAlign=middle;resizable=0;points=[];" vertex="1" connectable="0" parent="m-wUcL0TxxVz_5NodCS--6">
          <mxGeometry x="-0.227" y="2" relative="1" as="geometry">
            <mxPoint as="offset" />
          </mxGeometry>
        </mxCell>
        <mxCell id="m-wUcL0TxxVz_5NodCS--7" value="表示する" style="ellipse;shape=umlControl;whiteSpace=wrap;html=1;fillColor=#f8cecc;strokeColor=#b85450;" vertex="1" parent="1">
          <mxGeometry x="680" y="160" width="60" height="70" as="geometry" />
        </mxCell>
        <mxCell id="m-wUcL0TxxVz_5NodCS--8" value="学生情報登録" style="ellipse;shape=umlControl;whiteSpace=wrap;html=1;fillColor=#f8cecc;strokeColor=#b85450;" vertex="1" parent="1">
          <mxGeometry x="680" y="295" width="60" height="70" as="geometry" />
        </mxCell>
        <mxCell id="m-wUcL0TxxVz_5NodCS--9" value="" style="endArrow=classic;html=1;rounded=0;entryX=-0.022;entryY=0.6;entryDx=0;entryDy=0;entryPerimeter=0;exitX=0.99;exitY=0.489;exitDx=0;exitDy=0;exitPerimeter=0;" edge="1" parent="1" source="m-wUcL0TxxVz_5NodCS--2" target="m-wUcL0TxxVz_5NodCS--7">
          <mxGeometry width="50" height="50" relative="1" as="geometry">
            <mxPoint x="500" y="287" as="sourcePoint" />
            <mxPoint x="568" y="230" as="targetPoint" />
          </mxGeometry>
        </mxCell>
        <mxCell id="m-wUcL0TxxVz_5NodCS--10" value="" style="endArrow=classic;html=1;rounded=0;entryX=0;entryY=0.567;entryDx=0;entryDy=0;entryPerimeter=0;exitX=1.029;exitY=0.533;exitDx=0;exitDy=0;exitPerimeter=0;" edge="1" parent="1" source="m-wUcL0TxxVz_5NodCS--3" target="m-wUcL0TxxVz_5NodCS--8">
          <mxGeometry width="50" height="50" relative="1" as="geometry">
            <mxPoint x="660" y="317" as="sourcePoint" />
            <mxPoint x="728" y="260" as="targetPoint" />
          </mxGeometry>
        </mxCell>
        <mxCell id="m-wUcL0TxxVz_5NodCS--11" value="" style="endArrow=classic;html=1;rounded=0;" edge="1" parent="1" source="m-wUcL0TxxVz_5NodCS--7" target="m-wUcL0TxxVz_5NodCS--3">
          <mxGeometry width="50" height="50" relative="1" as="geometry">
            <mxPoint x="670" y="327" as="sourcePoint" />
            <mxPoint x="738" y="270" as="targetPoint" />
          </mxGeometry>
        </mxCell>
        <mxCell id="m-wUcL0TxxVz_5NodCS--12" value="学生&lt;div&gt;オブジェクト&lt;/div&gt;" style="ellipse;shape=umlEntity;whiteSpace=wrap;html=1;fillColor=#dae8fc;strokeColor=#6c8ebf;" vertex="1" parent="1">
          <mxGeometry x="830" y="215" width="80" height="80" as="geometry" />
        </mxCell>
        <mxCell id="m-wUcL0TxxVz_5NodCS--13" value="" style="endArrow=classic;html=1;rounded=0;startArrow=classic;startFill=1;" edge="1" parent="1" source="m-wUcL0TxxVz_5NodCS--8" target="m-wUcL0TxxVz_5NodCS--12">
          <mxGeometry width="50" height="50" relative="1" as="geometry">
            <mxPoint x="650" y="330" as="sourcePoint" />
            <mxPoint x="718" y="333" as="targetPoint" />
          </mxGeometry>
        </mxCell>
        <mxCell id="m-wUcL0TxxVz_5NodCS--16" value="境界&lt;br&gt;オブジェクト" style="shape=umlBoundary;whiteSpace=wrap;html=1;fillColor=#d5e8d4;strokeColor=#82b366;" vertex="1" parent="1">
          <mxGeometry x="380" y="440" width="100" height="80" as="geometry" />
        </mxCell>
        <mxCell id="m-wUcL0TxxVz_5NodCS--17" value="実態&lt;br&gt;オブジェクト" style="ellipse;shape=umlEntity;whiteSpace=wrap;html=1;fillColor=#dae8fc;strokeColor=#6c8ebf;" vertex="1" parent="1">
          <mxGeometry x="640" y="440" width="80" height="80" as="geometry" />
        </mxCell>
        <mxCell id="m-wUcL0TxxVz_5NodCS--18" value="制御&lt;br&gt;オブジェクト" style="ellipse;shape=umlControl;whiteSpace=wrap;html=1;fillColor=#f8cecc;strokeColor=#b85450;" vertex="1" parent="1">
          <mxGeometry x="520" y="430" width="80" height="90" as="geometry" />
        </mxCell>
      </root>
    </mxGraphModel>
  </diagram>
</mxfile>
